<svg xmlns="http://www.w3.org/2000/svg" viewBox="0 0 814 1000">
<path fill="white" d="M788.1 340.9c-5.8 4.5-108.2 62.2-108.2 190.5 0 148.4 130.3 200.9 134.2 202.2-.6 3.2-20.7 71.9-68.7 141.9-42.8 61.6-87.5 123.1-155.5 123.1s-85.5-39.5-164-39.5c-76.5 0-103.7 40.8-165.9 40.8s-105.6-57.8-155.5-127.4c-58.3-81.3-105.9-207.9-105.9-328.5 0-193.1 125.4-295.7 248.8-295.7 65.6 0 120.3 43.1 161.4 43.1 39.1 0 100.1-45.7 174.5-45.7 28.2 0 129.5 2.6 196.8 99.2zM554.1 159.4c31.1-36.9 53.1-88.1 53.1-139.3 0-7.1-.6-14.3-1.9-20.1-50.6 1.9-110.8 33.7-147.1 75.8-28.5 32.4-55.1 83.6-55.1 135.5 0 7.8 1.3 15.6 1.9 18.1 3.2.6 8.4 1.3 13.6 1.3 45.4 0 103.5-30.4 135.5-71.3z"/>
</svg>
